# Blender v3.1.2 OBJ File: 'camera.blend'
# www.blender.org
o Cube
v -0.588151 0.583857 0.984458
v -0.588151 -0.583857 0.984458
v -0.588151 0.583857 -1.015542
v -0.588151 -0.583857 -1.015542
v 0.588151 0.583857 0.984458
v 0.588151 -0.583857 0.984458
v 0.588151 0.583857 -1.015542
v 0.588151 -0.583857 -1.015542
v -0.000000 -0.552769 -1.801571
v -0.109005 -0.542033 -1.801571
v -0.213821 -0.510237 -1.801571
v -0.310421 -0.458604 -1.801571
v -0.395090 -0.389117 -1.801571
v -0.464577 -0.304447 -1.801571
v -0.516211 -0.207848 -1.801571
v -0.548006 -0.103032 -1.801571
v -0.558742 0.005973 -1.801571
v -0.548006 0.114979 -1.801571
v -0.516211 0.219795 -1.801571
v -0.464577 0.316394 -1.801571
v -0.395090 0.401064 -1.801571
v -0.310421 0.470551 -1.801571
v -0.213821 0.522184 -1.801571
v -0.109005 0.553980 -1.801571
v 0.000000 0.564716 -1.801571
v 0.109005 0.553980 -1.801571
v 0.213821 0.522184 -1.801571
v 0.310421 0.470551 -1.801571
v 0.395090 0.401064 -1.801571
v 0.464577 0.316394 -1.801571
v 0.516210 0.219795 -1.801571
v 0.548006 0.114979 -1.801571
v 0.558742 0.005973 -1.801571
v 0.548006 -0.103032 -1.801571
v 0.516211 -0.207848 -1.801571
v 0.464577 -0.304447 -1.801571
v 0.395091 -0.389117 -1.801571
v 0.310421 -0.458604 -1.801571
v 0.213821 -0.510237 -1.801571
v 0.109005 -0.542033 -1.801571
v 0.000000 0.005973 -0.684086
vn 0.0000 1.0000 -0.0000
vn 0.0000 0.0000 -1.0000
vn 1.0000 0.0000 -0.0000
vn 0.0000 -1.0000 -0.0000
vn -1.0000 0.0000 0.0000
vn 0.0000 0.0000 1.0000
vn -0.0878 -0.8910 0.4455
vn -0.2599 -0.8567 0.4455
vn -0.4220 -0.7896 0.4455
vn -0.5680 -0.6921 0.4455
vn -0.6921 -0.5680 0.4455
vn -0.7896 -0.4220 0.4455
vn -0.8567 -0.2599 0.4455
vn -0.8910 -0.0878 0.4455
vn -0.8910 0.0878 0.4455
vn -0.8567 0.2599 0.4455
vn -0.7896 0.4220 0.4455
vn -0.6921 0.5680 0.4455
vn -0.5680 0.6921 0.4455
vn -0.4220 0.7896 0.4455
vn -0.2599 0.8567 0.4455
vn -0.0878 0.8910 0.4455
vn 0.0878 0.8910 0.4455
vn 0.2599 0.8567 0.4455
vn 0.4220 0.7896 0.4455
vn 0.5680 0.6921 0.4455
vn 0.6921 0.5680 0.4455
vn 0.7896 0.4220 0.4455
vn 0.8567 0.2599 0.4455
vn 0.8910 0.0878 0.4455
vn 0.8910 -0.0878 0.4455
vn 0.8567 -0.2599 0.4455
vn 0.7896 -0.4220 0.4455
vn 0.6921 -0.5680 0.4455
vn 0.5680 -0.6921 0.4455
vn 0.4220 -0.7896 0.4455
vn 0.2599 -0.8567 0.4455
vn 0.0878 -0.8910 0.4455
s off
f 5//1 3//1 1//1
f 3//2 8//2 4//2
f 7//3 6//3 8//3
f 2//4 8//4 6//4
f 1//5 4//5 2//5
f 5//6 2//6 6//6
f 9//7 41//7 10//7
f 10//8 41//8 11//8
f 11//9 41//9 12//9
f 12//10 41//10 13//10
f 13//11 41//11 14//11
f 14//12 41//12 15//12
f 15//13 41//13 16//13
f 16//14 41//14 17//14
f 17//15 41//15 18//15
f 18//16 41//16 19//16
f 19//17 41//17 20//17
f 20//18 41//18 21//18
f 21//19 41//19 22//19
f 22//20 41//20 23//20
f 23//21 41//21 24//21
f 24//22 41//22 25//22
f 25//23 41//23 26//23
f 26//24 41//24 27//24
f 27//25 41//25 28//25
f 28//26 41//26 29//26
f 29//27 41//27 30//27
f 30//28 41//28 31//28
f 31//29 41//29 32//29
f 32//30 41//30 33//30
f 33//31 41//31 34//31
f 34//32 41//32 35//32
f 35//33 41//33 36//33
f 36//34 41//34 37//34
f 37//35 41//35 38//35
f 38//36 41//36 39//36
f 24//2 32//2 40//2
f 39//37 41//37 40//37
f 40//38 41//38 9//38
f 5//1 7//1 3//1
f 3//2 7//2 8//2
f 7//3 5//3 6//3
f 2//4 4//4 8//4
f 1//5 3//5 4//5
f 5//6 1//6 2//6
f 40//2 9//2 10//2
f 10//2 11//2 12//2
f 12//2 13//2 16//2
f 13//2 14//2 16//2
f 14//2 15//2 16//2
f 16//2 17//2 18//2
f 18//2 19//2 20//2
f 20//2 21//2 22//2
f 22//2 23//2 20//2
f 23//2 24//2 20//2
f 24//2 25//2 26//2
f 26//2 27//2 24//2
f 27//2 28//2 24//2
f 28//2 29//2 32//2
f 29//2 30//2 32//2
f 30//2 31//2 32//2
f 32//2 33//2 34//2
f 34//2 35//2 36//2
f 36//2 37//2 40//2
f 37//2 38//2 40//2
f 38//2 39//2 40//2
f 40//2 10//2 16//2
f 10//2 12//2 16//2
f 16//2 18//2 24//2
f 18//2 20//2 24//2
f 32//2 34//2 36//2
f 24//2 28//2 32//2
f 32//2 36//2 40//2
f 40//2 16//2 24//2
